<mxfile host="Electron" modified="2023-12-07T07:33:23.181Z" agent="Mozilla/5.0 (Macintosh; Intel Mac OS X 10_15_7) AppleWebKit/537.36 (KHTML, like Gecko) draw.io/21.4.0 Chrome/112.0.5615.204 Electron/24.5.1 Safari/537.36" etag="G8hjDITkr44UTPN9XW6t" version="21.4.0" type="device">
  <diagram name="Page-1" id="Qp3Nq8EHEQ_wjbfsZRs7">
    <mxGraphModel dx="1684" dy="571" grid="1" gridSize="10" guides="1" tooltips="1" connect="1" arrows="1" fold="1" page="1" pageScale="1" pageWidth="827" pageHeight="1169" math="0" shadow="0">
      <root>
        <mxCell id="0" />
        <mxCell id="1" parent="0" />
        <mxCell id="96Kqf_Yj2BC1gve7FlJ--10" value="" style="rounded=0;whiteSpace=wrap;html=1;fillColor=#f5f5f5;gradientColor=#b3b3b3;strokeColor=#666666;" vertex="1" parent="1">
          <mxGeometry x="-130" y="140" width="760" height="300" as="geometry" />
        </mxCell>
        <mxCell id="96Kqf_Yj2BC1gve7FlJ--2" value="" style="rounded=0;whiteSpace=wrap;html=1;fillColor=#fff2cc;strokeColor=#d6b656;" vertex="1" parent="1">
          <mxGeometry x="180" y="260" width="140" height="121" as="geometry" />
        </mxCell>
        <mxCell id="96Kqf_Yj2BC1gve7FlJ--1" value="Aapche" style="rounded=0;whiteSpace=wrap;html=1;fillColor=#dae8fc;strokeColor=#6c8ebf;fontSize=13;fontStyle=1" vertex="1" parent="1">
          <mxGeometry x="200" y="320" width="100" height="50" as="geometry" />
        </mxCell>
        <mxCell id="96Kqf_Yj2BC1gve7FlJ--3" value="Pod&lt;br&gt;(10.244.1.51)" style="text;html=1;strokeColor=none;fillColor=none;align=center;verticalAlign=middle;whiteSpace=wrap;rounded=0;fontStyle=1;fontSize=14;" vertex="1" parent="1">
          <mxGeometry x="180" y="390" width="140" height="30" as="geometry" />
        </mxCell>
        <mxCell id="96Kqf_Yj2BC1gve7FlJ--4" value="80" style="ellipse;whiteSpace=wrap;html=1;aspect=fixed;fillColor=#d80073;fontColor=#ffffff;strokeColor=#A50040;" vertex="1" parent="1">
          <mxGeometry x="235" y="300" width="30" height="30" as="geometry" />
        </mxCell>
        <mxCell id="96Kqf_Yj2BC1gve7FlJ--5" value="80" style="ellipse;whiteSpace=wrap;html=1;aspect=fixed;fillColor=#008a00;fontColor=#ffffff;strokeColor=#005700;" vertex="1" parent="1">
          <mxGeometry x="235" y="240" width="30" height="30" as="geometry" />
        </mxCell>
        <mxCell id="96Kqf_Yj2BC1gve7FlJ--6" value="" style="rounded=0;whiteSpace=wrap;html=1;fillColor=#1ba1e2;fontColor=#ffffff;strokeColor=#006EAF;" vertex="1" parent="1">
          <mxGeometry x="245" y="270" width="10" height="30" as="geometry" />
        </mxCell>
        <mxCell id="96Kqf_Yj2BC1gve7FlJ--27" style="edgeStyle=orthogonalEdgeStyle;rounded=0;orthogonalLoop=1;jettySize=auto;html=1;entryX=0.5;entryY=0;entryDx=0;entryDy=0;" edge="1" parent="1" source="96Kqf_Yj2BC1gve7FlJ--7" target="96Kqf_Yj2BC1gve7FlJ--24">
          <mxGeometry relative="1" as="geometry" />
        </mxCell>
        <mxCell id="96Kqf_Yj2BC1gve7FlJ--7" value="user" style="shape=umlActor;verticalLabelPosition=bottom;verticalAlign=top;html=1;outlineConnect=0;" vertex="1" parent="1">
          <mxGeometry x="150" y="160" width="20" height="30" as="geometry" />
        </mxCell>
        <mxCell id="96Kqf_Yj2BC1gve7FlJ--11" value="Kuberenetes Cluster (minikube)&lt;br&gt;" style="text;html=1;strokeColor=none;fillColor=none;align=center;verticalAlign=middle;whiteSpace=wrap;rounded=0;fontStyle=1;fontSize=14;" vertex="1" parent="1">
          <mxGeometry x="110" y="440" width="520" height="30" as="geometry" />
        </mxCell>
        <mxCell id="96Kqf_Yj2BC1gve7FlJ--12" value="" style="rounded=0;whiteSpace=wrap;html=1;" vertex="1" parent="1">
          <mxGeometry x="680" y="166" width="120" height="90" as="geometry" />
        </mxCell>
        <mxCell id="96Kqf_Yj2BC1gve7FlJ--13" value="" style="rounded=0;whiteSpace=wrap;html=1;fillColor=#a0522d;fontColor=#ffffff;strokeColor=#6D1F00;" vertex="1" parent="1">
          <mxGeometry x="680" y="166" width="120" height="20" as="geometry" />
        </mxCell>
        <mxCell id="96Kqf_Yj2BC1gve7FlJ--14" value="Browser" style="text;html=1;strokeColor=none;fillColor=none;align=center;verticalAlign=middle;whiteSpace=wrap;rounded=0;fontStyle=1;fontSize=14;" vertex="1" parent="1">
          <mxGeometry x="680" y="256" width="120" height="30" as="geometry" />
        </mxCell>
        <mxCell id="96Kqf_Yj2BC1gve7FlJ--15" value="" style="rounded=0;whiteSpace=wrap;html=1;fillColor=#f8cecc;strokeColor=#b85450;" vertex="1" parent="1">
          <mxGeometry x="405" y="163" width="160" height="90" as="geometry" />
        </mxCell>
        <mxCell id="96Kqf_Yj2BC1gve7FlJ--16" value="Service" style="text;html=1;strokeColor=none;fillColor=none;align=center;verticalAlign=middle;whiteSpace=wrap;rounded=0;fontStyle=1;fontSize=14;" vertex="1" parent="1">
          <mxGeometry x="405" y="256" width="160" height="30" as="geometry" />
        </mxCell>
        <mxCell id="96Kqf_Yj2BC1gve7FlJ--17" value="80" style="ellipse;whiteSpace=wrap;html=1;aspect=fixed;fillColor=#f0a30a;strokeColor=#BD7000;fontColor=#000000;" vertex="1" parent="1">
          <mxGeometry x="390" y="193" width="30" height="30" as="geometry" />
        </mxCell>
        <mxCell id="96Kqf_Yj2BC1gve7FlJ--18" value="80" style="ellipse;whiteSpace=wrap;html=1;aspect=fixed;fillColor=#e3c800;fontColor=#000000;strokeColor=#B09500;" vertex="1" parent="1">
          <mxGeometry x="549" y="192" width="30" height="30" as="geometry" />
        </mxCell>
        <mxCell id="96Kqf_Yj2BC1gve7FlJ--19" value="" style="rounded=0;whiteSpace=wrap;html=1;fillColor=#1ba1e2;fontColor=#ffffff;strokeColor=#006EAF;" vertex="1" parent="1">
          <mxGeometry x="422" y="201" width="125" height="14" as="geometry" />
        </mxCell>
        <mxCell id="96Kqf_Yj2BC1gve7FlJ--20" value="" style="rounded=0;whiteSpace=wrap;html=1;fillColor=#1ba1e2;fontColor=#ffffff;strokeColor=#006EAF;" vertex="1" parent="1">
          <mxGeometry x="650" y="199" width="30" height="14" as="geometry" />
        </mxCell>
        <mxCell id="96Kqf_Yj2BC1gve7FlJ--21" value="32067" style="ellipse;whiteSpace=wrap;html=1;aspect=fixed;fillColor=#76608a;fontColor=#ffffff;strokeColor=#432D57;" vertex="1" parent="1">
          <mxGeometry x="610" y="186" width="40" height="40" as="geometry" />
        </mxCell>
        <mxCell id="96Kqf_Yj2BC1gve7FlJ--22" value="" style="rounded=0;whiteSpace=wrap;html=1;fillColor=#1ba1e2;fontColor=#ffffff;strokeColor=#006EAF;" vertex="1" parent="1">
          <mxGeometry x="580" y="200" width="30" height="14" as="geometry" />
        </mxCell>
        <mxCell id="96Kqf_Yj2BC1gve7FlJ--23" value="" style="rounded=0;whiteSpace=wrap;html=1;fillColor=#1ba1e2;fontColor=#ffffff;strokeColor=#006EAF;" vertex="1" parent="1">
          <mxGeometry x="20" y="200" width="370" height="17" as="geometry" />
        </mxCell>
        <mxCell id="96Kqf_Yj2BC1gve7FlJ--24" value="" style="rounded=0;whiteSpace=wrap;html=1;fillColor=#1ba1e2;fontColor=#ffffff;strokeColor=#006EAF;" vertex="1" parent="1">
          <mxGeometry x="245" y="200" width="10" height="40" as="geometry" />
        </mxCell>
        <mxCell id="96Kqf_Yj2BC1gve7FlJ--30" style="edgeStyle=orthogonalEdgeStyle;rounded=0;orthogonalLoop=1;jettySize=auto;html=1;entryX=0;entryY=0.5;entryDx=0;entryDy=0;" edge="1" parent="1" source="96Kqf_Yj2BC1gve7FlJ--29" target="96Kqf_Yj2BC1gve7FlJ--5">
          <mxGeometry relative="1" as="geometry">
            <Array as="points">
              <mxPoint x="98" y="186" />
              <mxPoint x="98" y="230" />
              <mxPoint x="235" y="230" />
            </Array>
          </mxGeometry>
        </mxCell>
        <mxCell id="96Kqf_Yj2BC1gve7FlJ--29" value="containerPort" style="text;html=1;strokeColor=none;fillColor=none;align=center;verticalAlign=middle;whiteSpace=wrap;rounded=0;fontStyle=1;fontSize=14;" vertex="1" parent="1">
          <mxGeometry x="-140" y="171" width="100" height="30" as="geometry" />
        </mxCell>
        <mxCell id="96Kqf_Yj2BC1gve7FlJ--33" style="edgeStyle=orthogonalEdgeStyle;rounded=0;orthogonalLoop=1;jettySize=auto;html=1;" edge="1" parent="1" source="96Kqf_Yj2BC1gve7FlJ--32" target="96Kqf_Yj2BC1gve7FlJ--17">
          <mxGeometry relative="1" as="geometry" />
        </mxCell>
        <mxCell id="96Kqf_Yj2BC1gve7FlJ--32" value="targetPort" style="text;html=1;strokeColor=none;fillColor=none;align=center;verticalAlign=middle;whiteSpace=wrap;rounded=0;fontStyle=1;fontSize=14;" vertex="1" parent="1">
          <mxGeometry x="355" y="60" width="100" height="30" as="geometry" />
        </mxCell>
        <mxCell id="96Kqf_Yj2BC1gve7FlJ--35" style="edgeStyle=orthogonalEdgeStyle;rounded=0;orthogonalLoop=1;jettySize=auto;html=1;" edge="1" parent="1" source="96Kqf_Yj2BC1gve7FlJ--34" target="96Kqf_Yj2BC1gve7FlJ--18">
          <mxGeometry relative="1" as="geometry" />
        </mxCell>
        <mxCell id="96Kqf_Yj2BC1gve7FlJ--34" value="port" style="text;html=1;strokeColor=none;fillColor=none;align=center;verticalAlign=middle;whiteSpace=wrap;rounded=0;fontStyle=1;fontSize=14;" vertex="1" parent="1">
          <mxGeometry x="539" y="60" width="50" height="30" as="geometry" />
        </mxCell>
        <mxCell id="96Kqf_Yj2BC1gve7FlJ--37" style="edgeStyle=orthogonalEdgeStyle;rounded=0;orthogonalLoop=1;jettySize=auto;html=1;" edge="1" parent="1" source="96Kqf_Yj2BC1gve7FlJ--36" target="96Kqf_Yj2BC1gve7FlJ--21">
          <mxGeometry relative="1" as="geometry">
            <Array as="points">
              <mxPoint x="662" y="130" />
              <mxPoint x="630" y="130" />
            </Array>
          </mxGeometry>
        </mxCell>
        <mxCell id="96Kqf_Yj2BC1gve7FlJ--36" value="nodePort&lt;br&gt;30000-32767" style="text;html=1;strokeColor=none;fillColor=none;align=center;verticalAlign=middle;whiteSpace=wrap;rounded=0;fontStyle=1;fontSize=14;" vertex="1" parent="1">
          <mxGeometry x="620" y="60" width="85" height="30" as="geometry" />
        </mxCell>
        <mxCell id="96Kqf_Yj2BC1gve7FlJ--39" value="R" style="ellipse;whiteSpace=wrap;html=1;aspect=fixed;" vertex="1" parent="1">
          <mxGeometry x="360" y="100" width="20" height="20" as="geometry" />
        </mxCell>
        <mxCell id="96Kqf_Yj2BC1gve7FlJ--41" value="" style="rounded=0;whiteSpace=wrap;html=1;fillColor=#fff2cc;strokeColor=#d6b656;" vertex="1" parent="1">
          <mxGeometry x="330" y="310" width="95" height="70" as="geometry" />
        </mxCell>
        <mxCell id="96Kqf_Yj2BC1gve7FlJ--42" value="" style="rounded=0;whiteSpace=wrap;html=1;fillColor=#fff2cc;strokeColor=#d6b656;" vertex="1" parent="1">
          <mxGeometry x="437" y="310" width="95" height="70" as="geometry" />
        </mxCell>
        <mxCell id="96Kqf_Yj2BC1gve7FlJ--43" value="type: frontend" style="rounded=0;whiteSpace=wrap;html=1;fillColor=#647687;fontColor=#ffffff;strokeColor=#314354;" vertex="1" parent="1">
          <mxGeometry x="140" y="270" width="90" height="30" as="geometry" />
        </mxCell>
        <mxCell id="96Kqf_Yj2BC1gve7FlJ--45" value="" style="rounded=0;whiteSpace=wrap;html=1;fillColor=#fff2cc;strokeColor=#d6b656;" vertex="1" parent="1">
          <mxGeometry x="-40" y="257" width="140" height="121" as="geometry" />
        </mxCell>
        <mxCell id="96Kqf_Yj2BC1gve7FlJ--46" value="Aapche" style="rounded=0;whiteSpace=wrap;html=1;fillColor=#dae8fc;strokeColor=#6c8ebf;fontSize=13;fontStyle=1" vertex="1" parent="1">
          <mxGeometry x="-20" y="317" width="100" height="50" as="geometry" />
        </mxCell>
        <mxCell id="96Kqf_Yj2BC1gve7FlJ--47" value="Pod&lt;br&gt;(10.244.1.50)" style="text;html=1;strokeColor=none;fillColor=none;align=center;verticalAlign=middle;whiteSpace=wrap;rounded=0;fontStyle=1;fontSize=14;" vertex="1" parent="1">
          <mxGeometry x="-40" y="387" width="140" height="30" as="geometry" />
        </mxCell>
        <mxCell id="96Kqf_Yj2BC1gve7FlJ--48" value="80" style="ellipse;whiteSpace=wrap;html=1;aspect=fixed;fillColor=#d80073;fontColor=#ffffff;strokeColor=#A50040;" vertex="1" parent="1">
          <mxGeometry x="15" y="297" width="30" height="30" as="geometry" />
        </mxCell>
        <mxCell id="96Kqf_Yj2BC1gve7FlJ--49" value="type: frontend" style="rounded=0;whiteSpace=wrap;html=1;fillColor=#647687;fontColor=#ffffff;strokeColor=#314354;" vertex="1" parent="1">
          <mxGeometry x="-90" y="271" width="90" height="30" as="geometry" />
        </mxCell>
        <mxCell id="96Kqf_Yj2BC1gve7FlJ--50" value="" style="rounded=0;whiteSpace=wrap;html=1;fillColor=#1ba1e2;fontColor=#ffffff;strokeColor=#006EAF;" vertex="1" parent="1">
          <mxGeometry x="25" y="201" width="10" height="40" as="geometry" />
        </mxCell>
        <mxCell id="96Kqf_Yj2BC1gve7FlJ--52" value="80" style="ellipse;whiteSpace=wrap;html=1;aspect=fixed;fillColor=#008a00;fontColor=#ffffff;strokeColor=#005700;" vertex="1" parent="1">
          <mxGeometry x="15" y="241" width="30" height="30" as="geometry" />
        </mxCell>
        <mxCell id="96Kqf_Yj2BC1gve7FlJ--54" value="" style="rounded=0;whiteSpace=wrap;html=1;fillColor=#1ba1e2;fontColor=#ffffff;strokeColor=#006EAF;" vertex="1" parent="1">
          <mxGeometry x="25" y="271" width="10" height="30" as="geometry" />
        </mxCell>
      </root>
    </mxGraphModel>
  </diagram>
</mxfile>
